<?xml version="1.0" encoding="UTF-8"?>
<svg width="32" height="32" version="1.1" viewBox="0 0 8.4667 8.4667" xmlns="http://www.w3.org/2000/svg" xmlns:cc="http://creativecommons.org/ns#" xmlns:dc="http://purl.org/dc/elements/1.1/" xmlns:rdf="http://www.w3.org/1999/02/22-rdf-syntax-ns#">
 <metadata>
  <rdf:RDF>
   <cc:Work rdf:about="">
    <dc:format>image/svg+xml</dc:format>
    <dc:type rdf:resource="http://purl.org/dc/dcmitype/StillImage"/>
    <dc:title/>
   </cc:Work>
  </rdf:RDF>
 </metadata>
 <path d="m6.5344 5.425q0.19631 0 0.31455-0.12046 0.11823-0.1227 0.12939-0.34801h0.37255q-0.013385 0.34801-0.24762 0.57778-0.23201 0.22754-0.56886 0.22754-0.44839 0-0.68486-0.28108-0.23424-0.28331-0.23424-0.84102v-0.26547q0-0.54655 0.23424-0.82986 0.23424-0.28554 0.68263-0.28554 0.37032 0 0.58671 0.23424 0.21862 0.23424 0.23201 0.64025h-0.37255q-0.013385-0.2677-0.12939-0.40155-0.11377-0.13385-0.31678-0.13385-0.26324 0-0.39039 0.174-0.12716 0.17177-0.13162 0.56663v0.30785q0 0.42609 0.12493 0.60232 0.12716 0.17623 0.39932 0.17623zm-1.3474-0.79863q0 0.5644-0.203 0.84994-0.203 0.28554-0.58894 0.28554-0.3837 0-0.57555-0.33016l-0.020077 0.28554h-0.35916v-3.4265h0.39262v1.2783q0.19408-0.31008 0.5577-0.31008 0.39709 0 0.59563 0.28108 0.19854 0.28108 0.20077 0.84771zm-0.39262-0.22531q0-0.42832-0.12046-0.60901-0.11823-0.18293-0.38593-0.18293-0.30562 0-0.45509 0.33016v1.1489q0.14723 0.3257 0.45955 0.3257 0.2677 0 0.3837-0.18739 0.116-0.18739 0.11823-0.58224zm-2.3 1.3162q-0.035693-0.078079-0.051309-0.26324-0.2097 0.30785-0.5354 0.30785-0.32793 0-0.51309-0.18293-0.18293-0.18516-0.18293-0.51978 0-0.36809 0.24985-0.58447 0.24985-0.21639 0.68486-0.22085h0.29001v-0.25654q0-0.21639-0.095925-0.30785-0.095925-0.091464-0.29224-0.091464-0.17847 0-0.29001 0.10708-0.11154 0.10485-0.11154 0.2677h-0.39486q0-0.18516 0.10931-0.35247 0.10931-0.16954 0.29447-0.26547 0.18516-0.095925 0.4127-0.095925 0.37032 0 0.56217 0.18516 0.19408 0.18293 0.19854 0.5354v1.218q0.00223 0.27885 0.075848 0.48409v0.035693zm-0.52647-0.31455q0.145 0 0.27662-0.08031 0.13162-0.08031 0.19185-0.20077v-0.57555h-0.22308q-0.28108 0.0044616-0.44393 0.12716-0.16285 0.12046-0.16285 0.33908 0 0.20524 0.08254 0.29893 0.08254 0.091464 0.27885 0.091464z" fill="#fff"/>
</svg>
