<?xml version="1.0" encoding="UTF-8"?>
<!-- Created with Inkscape (http://www.inkscape.org/) -->
<svg width="18" height="18" version="1.1" viewBox="0 0 4.7625 4.7625" xmlns="http://www.w3.org/2000/svg" xmlns:cc="http://creativecommons.org/ns#" xmlns:dc="http://purl.org/dc/elements/1.1/" xmlns:rdf="http://www.w3.org/1999/02/22-rdf-syntax-ns#">
 <metadata>
  <rdf:RDF>
   <cc:Work rdf:about="">
    <dc:format>image/svg+xml</dc:format>
    <dc:type rdf:resource="http://purl.org/dc/dcmitype/StillImage"/>
    <dc:title/>
   </cc:Work>
  </rdf:RDF>
 </metadata>
 <g transform="translate(0 -292.24)" fill="#fff">
  <path d="m1.8172 293.06h1.1281c0.55055 0 0.99377 0.44323 0.99377 0.99378v1.128c0 0.55055-0.44322 0.99377-0.99377 0.99377h-1.1281c-0.55055 0-0.99377-0.44322-0.99377-0.99377v-1.128c0-0.55055 0.44322-0.99378 0.99377-0.99378zm0.39034 2.5478h0.34737v-0.82144h0.8153v-0.34328h-0.8153v-0.81531h-0.34737v0.81531h-0.8153v0.34328h0.8153z"/>
  <path d="m-10.136 298.33h1.978v-0.34329h-1.978zm0.42496-1.7264h1.1281c0.55055 0 0.99377 0.44322 0.99377 0.99377v1.128c0 0.55055-0.44322 0.99378-0.99377 0.99378h-1.1281c-0.55055 0-0.99377-0.44323-0.99377-0.99378v-1.128c0-0.55055 0.44322-0.99377 0.99377-0.99377z"/>
 </g>
</svg>
