<?xml version="1.0" encoding="UTF-8"?>
<svg width="32" height="32" version="1.1" viewBox="0 0 8.4667 8.4667" xmlns="http://www.w3.org/2000/svg" xmlns:cc="http://creativecommons.org/ns#" xmlns:dc="http://purl.org/dc/elements/1.1/" xmlns:rdf="http://www.w3.org/1999/02/22-rdf-syntax-ns#">
 <metadata>
  <rdf:RDF>
   <cc:Work rdf:about="">
    <dc:format>image/svg+xml</dc:format>
    <dc:type rdf:resource="http://purl.org/dc/dcmitype/StillImage"/>
    <dc:title/>
   </cc:Work>
  </rdf:RDF>
 </metadata>
 <path d="m4.2595 1.9681a1.3286 1.3286 0 0 1 0.11182 0.53595h1.1389v3.3372h-2.396v-2.013a1.3286 1.3286 0 0 1-0.53594-0.0822v2.3623a0.26825 0.26825 0 0 0 0.26705 0.26891h2.9338a0.26825 0.26825 0 0 0 0.26708-0.26891v-3.8731a0.26825 0.26825 0 0 0-0.26708-0.26704z" color="#000000" color-rendering="auto" dominant-baseline="auto" fill="#fff" image-rendering="auto" shape-rendering="auto" solid-color="#000000" style="font-feature-settings:normal;font-variant-alternates:normal;font-variant-caps:normal;font-variant-ligatures:normal;font-variant-numeric:normal;font-variant-position:normal;isolation:auto;mix-blend-mode:normal;paint-order:markers stroke fill;shape-padding:0;text-decoration-color:#000000;text-decoration-line:none;text-decoration-style:solid;text-indent:0;text-orientation:mixed;text-transform:none;white-space:normal"/>
 <path d="m3.2919 1.644-0.0662 0.62439 0.60642-0.24021 0.13935 0.4504-0.61377 0.13805 0.40473 0.46478-0.41071 0.28262-0.31837-0.53761-0.32285 0.53248-0.40613-0.28916 0.41212-0.45825-0.59924-0.14774 0.16288-0.44799 0.56983 0.24963-0.0481-0.62531z" fill="#fff"/>
</svg>
