<?xml version="1.0" encoding="UTF-8"?>
<svg width="32" height="32" version="1.1" viewBox="0 0 8.4667 8.4667" xmlns="http://www.w3.org/2000/svg" xmlns:cc="http://creativecommons.org/ns#" xmlns:dc="http://purl.org/dc/elements/1.1/" xmlns:rdf="http://www.w3.org/1999/02/22-rdf-syntax-ns#">
 <metadata>
  <rdf:RDF>
   <cc:Work rdf:about="">
    <dc:format>image/svg+xml</dc:format>
    <dc:type rdf:resource="http://purl.org/dc/dcmitype/StillImage"/>
    <dc:title/>
   </cc:Work>
  </rdf:RDF>
 </metadata>
 <path d="m4.8196 5.546-0.24174 0.27066v0.78515h-0.36365v-2.4071h0.36365v1.1157l0.8554-1.1157h0.44216l-0.81408 1.0682 0.8678 1.3389h-0.4401zm0.93275-3.4862h-0.67358v1.9689h-0.36571v-1.9689h-0.66944v-0.31613h1.7087zm-2.3964 2.6624q0-0.17149-0.1033-0.26241-0.10125-0.093-0.34919-0.16736-0.24587-0.0744-0.39464-0.16529-0.33059-0.20455-0.33059-0.56614 0-0.29133 0.21075-0.47728 0.21075-0.18596 0.54961-0.18596 0.34711 0 0.56406 0.20662 0.21695 0.20455 0.21695 0.52894h-0.36365q0-0.20455-0.11157-0.31406t-0.30993-0.10951q-0.18182 0-0.28719 0.0909-0.10331 0.0909-0.10331 0.25827 0 0.14257 0.11777 0.23761 0.11777 0.093 0.36571 0.16943 0.24794 0.0764 0.39671 0.17975 0.15083 0.10125 0.22315 0.24175 0.0744 0.1405 0.0744 0.33059 0 0.30166-0.20869 0.47728-0.20868 0.17563-0.56406 0.17563-0.23141 0-0.42564-0.093-0.19422-0.093-0.30372-0.2624-0.10951-0.1715-0.10951-0.39878h0.36571q0 0.21489 0.12191 0.33059 0.1219 0.11571 0.35125 0.11571 0.20455 0 0.30579-0.093 0.10124-0.095 0.10124-0.24794z" fill="#fefefe" stroke="#fff" stroke-width=".079375" style="font-feature-settings:normal;font-variant-caps:all-small-caps;font-variant-ligatures:normal;font-variant-numeric:normal"/>
</svg>
